<svg width="64" height="20" viewBox="0 0 64 20" fill="none" xmlns="http://www.w3.org/2000/svg">
<path d="M2.47266 19H0.316406V2.125H3.33984L13.5938 13.7148V2.125H15.7383V19H12.7148L2.47266 7.42188V19ZM23.3203 2.19531C23.3203 2.49219 23.2617 2.77344 23.1445 3.03906C23.0352 3.30469 22.8828 3.53516 22.6875 3.73047C22.4922 3.92578 22.2617 4.08203 21.9961 4.19922C21.7305 4.30859 21.4492 4.36328 21.1523 4.36328C20.8555 4.36328 20.5742 4.30859 20.3086 4.19922C20.0508 4.08203 19.8242 3.92578 19.6289 3.73047C19.4336 3.53516 19.2773 3.30469 19.1602 3.03906C19.0508 2.77344 18.9961 2.49219 18.9961 2.19531C18.9961 1.89844 19.0508 1.62109 19.1602 1.36328C19.2773 1.09766 19.4336 0.867188 19.6289 0.671875C19.8242 0.476562 20.0508 0.324219 20.3086 0.214844C20.5742 0.0976562 20.8555 0.0390625 21.1523 0.0390625C21.4492 0.0390625 21.7305 0.0976562 21.9961 0.214844C22.2617 0.324219 22.4922 0.476562 22.6875 0.671875C22.8828 0.867188 23.0352 1.09766 23.1445 1.36328C23.2617 1.62109 23.3203 1.89844 23.3203 2.19531ZM23.1445 19H19.1719V5.47656H23.1445V19ZM42.0586 6.30859L40.0547 7.15234C39.8984 6.64453 39.6875 6.17969 39.4219 5.75781C39.1641 5.33594 38.8516 4.97656 38.4844 4.67969C38.125 4.375 37.7148 4.14062 37.2539 3.97656C36.793 3.80469 36.2891 3.71875 35.7422 3.71875C35.1562 3.71875 34.6172 3.81641 34.125 4.01172C33.6406 4.19922 33.2031 4.46094 32.8125 4.79688C32.4297 5.13281 32.0938 5.52344 31.8047 5.96875C31.5156 6.41406 31.2734 6.89063 31.0781 7.39844C30.8828 7.89844 30.7383 8.41797 30.6445 8.95703C30.5508 9.49609 30.5039 10.0234 30.5039 10.5391C30.5039 11.3594 30.5977 12.1758 30.7852 12.9883C30.9805 13.8008 31.2852 14.5312 31.6992 15.1797C32.1211 15.8281 32.6641 16.3555 33.3281 16.7617C33.9922 17.1602 34.7969 17.3594 35.7422 17.3594C36.2422 17.3594 36.7148 17.2773 37.1602 17.1133C37.6055 16.9414 38.0078 16.7109 38.3672 16.4219C38.7344 16.125 39.0547 15.7773 39.3281 15.3789C39.6016 14.9805 39.8203 14.5508 39.9844 14.0898L42.0117 14.8984C41.7148 15.6406 41.3086 16.293 40.793 16.8555C40.2773 17.4102 39.6875 17.8711 39.0234 18.2383C38.3672 18.6055 37.6602 18.8789 36.9023 19.0586C36.1523 19.2461 35.3945 19.3398 34.6289 19.3398C33.8008 19.3398 33.0039 19.2383 32.2383 19.0352C31.4805 18.832 30.7734 18.543 30.1172 18.168C29.4609 17.793 28.8633 17.3398 28.3242 16.8086C27.793 16.2773 27.3359 15.6875 26.9531 15.0391C26.5781 14.3906 26.2852 13.6875 26.0742 12.9297C25.8711 12.1641 25.7695 11.3672 25.7695 10.5391C25.7695 9.71094 25.8711 8.91797 26.0742 8.16016C26.2852 7.39453 26.5781 6.6875 26.9531 6.03906C27.3359 5.38281 27.793 4.78906 28.3242 4.25781C28.8633 3.72656 29.4609 3.27344 30.1172 2.89844C30.7734 2.52344 31.4805 2.23437 32.2383 2.03125C33.0039 1.82813 33.8008 1.72656 34.6289 1.72656C35.4258 1.72656 36.2031 1.82031 36.9609 2.00781C37.7266 2.19531 38.4375 2.48047 39.0938 2.86328C39.75 3.23828 40.332 3.71484 40.8398 4.29297C41.3555 4.86328 41.7617 5.53516 42.0586 6.30859ZM56.8945 19H44.7773V2.125H56.8945V4.28125H49.4297V9.49609H55.1953V11.6406H49.4297V16.8438H56.8945V19Z" fill="#172600"/>
<path d="M63.3633 17.2422C63.3633 17.5391 63.3086 17.8203 63.1992 18.0859C63.0898 18.3438 62.9375 18.5703 62.7422 18.7656C62.5469 18.9531 62.3203 19.1016 62.0625 19.2109C61.8047 19.3281 61.5273 19.3867 61.2305 19.3867C60.9336 19.3867 60.6562 19.3281 60.3984 19.2109C60.1406 19.1016 59.9141 18.9531 59.7188 18.7656C59.5234 18.5703 59.3711 18.3438 59.2617 18.0859C59.1523 17.8203 59.0977 17.5391 59.0977 17.2422C59.0977 16.9531 59.1523 16.6797 59.2617 16.4219C59.3711 16.1562 59.5234 15.9297 59.7188 15.7422C59.9141 15.5469 60.1406 15.3945 60.3984 15.2852C60.6562 15.168 60.9336 15.1094 61.2305 15.1094C61.5273 15.1094 61.8047 15.168 62.0625 15.2852C62.3203 15.3945 62.5469 15.5469 62.7422 15.7422C62.9375 15.9297 63.0898 16.1562 63.1992 16.4219C63.3086 16.6797 63.3633 16.9531 63.3633 17.2422Z" fill="#F68B1F"/>
</svg>
